<svg width="41" height="30" viewBox="0 0 41 30" fill="none" xmlns="http://www.w3.org/2000/svg">
<path fill-rule="evenodd" clip-rule="evenodd" d="M34.6465 20C32.5873 25.826 27.0311 30 20.5 30C13.9689 30 8.41271 25.826 6.35353 20H3C1.61929 20 0.5 18.8807 0.5 17.5C0.5 16.1193 1.61929 15 3 15H5.5H8C9.38071 15 10.5 13.8807 10.5 12.5C10.5 11.1193 9.38071 10 8 10H6.35353C8.41271 4.17404 13.9689 0 20.5 0C27.0311 0 32.5873 4.17404 34.6465 10H38C39.3807 10 40.5 11.1193 40.5 12.5C40.5 13.8807 39.3807 15 38 15H35.5H33C31.6193 15 30.5 16.1193 30.5 17.5C30.5 18.8807 31.6193 20 33 20H34.6465Z" fill="#007AFF"/>
<path d="M20.1865 21.2197C23.3857 21.2197 25.3018 19.6729 25.3018 17.2383V17.2295C25.3018 15.2344 24.1064 14.1533 21.4521 13.626L20.1074 13.3535C18.6484 13.0635 17.998 12.5977 17.998 11.7979V11.7891C17.998 10.8838 18.8154 10.2598 20.1777 10.251C21.4873 10.251 22.4014 10.8574 22.5332 11.8506L22.542 11.9561H25.0469L25.0381 11.7891C24.915 9.56543 23.1133 8.09766 20.1777 8.09766C17.3652 8.09766 15.3438 9.62695 15.3438 11.9473V11.9561C15.3438 13.8633 16.6094 15.0586 19.1143 15.5596L20.4502 15.8232C22.0234 16.1484 22.6475 16.5791 22.6475 17.4404V17.4492C22.6475 18.416 21.7246 19.0576 20.2568 19.0576C18.8066 19.0576 17.7607 18.4424 17.5938 17.458L17.5762 17.3613H15.0713L15.0801 17.502C15.2295 19.8398 17.1719 21.2197 20.1865 21.2197Z" fill="white"/>
</svg>
